<svg xmlns="http://www.w3.org/2000/svg" xml:space="preserve" width="2000" height="1500" data-id="lg_n1FGV8bIx7d9PvUuqJ" data-version="1" viewBox="0 0 2000 1500"><path fill="#333" stroke="transparent" d="M0 0h2000v1500H0z"/><g data-padding="20"><g transform="translate(-1051.105 -783.778)scale(1.99783)"><path fill="#d6d6d6" d="M1306.547 926.027a112.963 112.963 0 0 1-157.477 103.836l-24.28-14.263-279.195-163.85-.488-.286-9.557-5.596-.344-.201c-64.386-40.51-98.234-115.65-85.916-190.712 12.318-75.065 68.409-135.444 142.363-153.25s151.38 10.425 196.515 71.656l.143.23 6.745 9.786.057.087 192.148 279.394a111.93 111.93 0 0 1 19.286 63.169"/><rect width="150.295" height="200.847" x="551.637" y="267.414" fill="none" rx="0" ry="0" transform="translate(308.77 324.31)"/><path fill="#fff" d="M906.895 747.988v-54.07l-42.26-84.53h61.88l13.8 28.38 14.23-28.38h51.73l-43.14 84.53v54.07Z"/></g><path fill="transparent" stroke="transparent" stroke-width="2.072" d="M419.89 187.5h1160.22v1125H419.89z"/></g></svg>